# xmcd
#
# Track frame offsets:
# 150
# 14389
# 36606
# 50007
# 61817
# 81363
# 97848
# 111264
# 131906
# 148944
# 176567
# 196702
#
# Disc length: 2940 seconds
#
#
# Revision: 0
# Processed by: cddbd v1.4PL0 Copyright (c) Steve Scherf et al.
# Submitted via: FreeRIP 2.00 
#
DISCID=ac0b7a0c
DTITLE=Sonny Boy Terry - Breakfast Dance
DYEAR=2000
DGENRE=
TTITLE0=I Live Where the Action Is
TTITLE1=I'll Be Your Fool
TTITLE2=Pressure Cookin'
TTITLE3=Jangle Jangle (Down Mexico Way)
TTITLE4=Business Man
TTITLE5=Moody Blues
TTITLE6=Take Your Time
TTITLE7=Hey Zydeco
TTITLE8=Railroad Tracks
TTITLE9=Laundromat Blues
TTITLE10=Holman And Dowling
TTITLE11=Screwdriver
EXTD=
EXTT0=
EXTT1=
EXTT2=
EXTT3=
EXTT4=
EXTT5=
EXTT6=
EXTT7=
EXTT8=
EXTT9=
EXTT10=
EXTT11=
PLAYORDER=
